<?xml version="1.0" encoding="UTF-8"?>
<svg id="Layer_2" data-name="Layer 2" xmlns="http://www.w3.org/2000/svg" width="13.39692" height="13.39692" viewBox="0 0 13.39692 13.39692">
  <g id="fcc-biz-fin-logo">
    <g id="elements">
      <path id="briefcase" d="M10.04769,9.04292v1.00477c0,.40191-.26794.66985-.66985.66985s-.66985-.26794-.66985-.66985v-1.00477h-4.01908v1.00477c0,.40191-.26794.66985-.66985.66985s-.66985-.26794-.66985-.66985v-1.00477h-1.33969c-.46889,0-.93778-.13397-1.33969-.33492v2.67938c0,1.13874.8708,2.00954,2.00954,2.00954h8.03815c1.13874,0,2.00954-.8708,2.00954-2.00954v-2.67938c-.40191.20095-.8708.33492-1.33969.33492h-1.33969ZM12.72707,2.67938h-2.67938v-.66985c0-1.13874-.8708-2.00954-2.00954-2.00954h-2.67938c-1.13874,0-2.00954.8708-2.00954,2.00954v.66985H.66985c-.40191,0-.66985.26794-.66985.66985v2.67938c0,1.13874.8708,2.00954,2.00954,2.00954h9.37784c1.13874,0,2.00954-.8708,2.00954-2.00954v-2.67938c0-.40191-.26794-.66985-.66985-.66985ZM8.708,2.67938h-4.01908v-.66985c0-.40191.26794-.66985.66985-.66985h2.67938c.40191,0,.66985.26794.66985.66985v.66985Z" style="fill: #dbba84;"/>
    </g>
  </g>
</svg>