<?xml version="1.0" encoding="UTF-8"?>
<svg id="Layer_2" data-name="Layer 2" xmlns="http://www.w3.org/2000/svg" width="19.38155" height="29.21749" viewBox="0 0 19.38155 29.21749">
  <g id="fcc-biz-fin-logo">
    <g id="elements">
      <g id="dollar-sign">
        <rect width="19.38155" height="22.07966" style="fill: none;"/>
        <path d="M8.99785,18.8591v-.65625c-1.15332-.10742-2.19141-.48145-2.85547-1.08789-.50684-.43945-.78809-.94531-.78809-1.43555,0-.55664.38086-.87988.8877-.87988.31543,0,.54785.09082.97168.51465.74609.80469,1.56836,1.17871,2.55664,1.17871,1.31934,0,2.05859-.59766,2.05859-1.54395,0-.73047-.50684-1.16211-1.73535-1.45312l-1.68457-.38965c-1.89258-.42285-2.88086-1.49414-2.88086-3.10449,0-1.84277,1.36914-3.12891,3.51953-3.32812v-.66406c0-.49805.33203-.69727.70508-.69727.38281,0,.71484.20703.71484.69727v.68848c1.03711.13281,1.95898.51465,2.57227,1.0957.46484.45605.73926.96289.73926,1.42773,0,.48145-.35645.80566-.82129.80566-.38281,0-.66406-.1416-1.0293-.52344-.72266-.80469-1.37012-1.12109-2.2998-1.12109-1.14551,0-1.87598.61523-1.87598,1.46094,0,.70605.51465,1.1875,1.56836,1.41992l1.68555.38184c2.05078.44824,3.03809,1.44434,3.03809,3.08789,0,1.90918-1.39453,3.2207-3.62793,3.46191v.66406c0,.49805-.33203.70508-.70508.70508-.38184,0-.71387-.20703-.71387-.70508Z" style="fill: #dbba85;"/>
      </g>
    </g>
  </g>
</svg>