<?xml version="1.0" encoding="UTF-8"?>
<svg id="fcc-biz-fin-logo" xmlns="http://www.w3.org/2000/svg" width="160" height="160" viewBox="0 0 160 160">
  <rect id="bg" width="160" height="160" style="fill: #fff;"/>
  <g id="base">
    <path id="laurel-wreath" d="M44.752,118.391c2.084-1.4,4.429-1.889,7.034-1.889-.912-.879-1.628-1.596-2.963-1.498-3.061.163-5.862-.814-8.434-2.475-.26-.163-.488-.358-.749-.554-.391-.326-.293-.423.163-.554,2.084-.586,4.168-.554,6.252-.033.163.033.326.163.521.065-.716-.879-1.433-1.759-2.117-2.638-.195-.228-.423-.228-.684-.293-3.256-.716-6.057-2.214-8.271-4.754-.521-.586-.944-1.237-1.303-2.084,2.605.033,4.787,1.042,7.001,2.182-.033-.358-.228-.586-.358-.814-.781-1.465-1.531-2.963-2.117-4.526-.163-.423-.423-.684-.879-.879-3.452-1.628-5.699-4.364-6.969-8.108,2.312.554,4.071,1.791,5.829,3.191-.293-1.368-.586-2.67-.814-3.973-.065-.358-.358-.423-.586-.554-2.638-1.563-4.364-3.777-5.112-6.773-.065-.261-.261-.586-.033-.782.195-.163.488.065.716.13,1.661.619,3.061,1.661,4.299,2.996-.098-1.237-.065-2.475-.098-3.712,0-.391-.391-.456-.619-.619-2.703-1.986-4.266-4.624-4.461-7.978,0-.13,0-.261.033-.456,2.214.944,3.81,2.475,5.08,4.689.065-1.628.13-3.028.195-4.429,0-.26-.195-.391-.358-.554-3.354-2.866-4.331-6.61-4.103-10.811.033-.847.163-.879.879-.358,1.726,1.237,2.963,2.833,3.875,4.722.098.163.163.358.326.749.228-1.465.391-2.703.586-3.94.033-.293-.163-.423-.326-.586-3.419-3.778-4.298-8.109-2.931-12.961.163-.619.391-.554.814-.228,2.898,2.149,4.331,5.08,4.429,8.662v.944c1.628-1.726,3.387-2.931,5.536-3.615.651-.195.749,0,.684.586-.293,3.289-1.758,5.927-4.526,7.783-.716.488-1.498.912-2.247,1.335-.293.163-.456.326-.488.619-.195,1.205-.391,2.442-.619,3.908,1.791-2.214,3.778-3.778,6.383-4.429.163.456-.065.847-.163,1.205-.912,3.191-2.703,5.699-5.731,7.164-.521.228-.749.554-.749,1.107-.033,1.27-.098,2.507-.163,3.973,1.693-1.791,3.517-3.159,5.992-3.55-.358,1.921-1.237,3.484-2.475,4.852-.814.912-1.758,1.661-2.865,2.182-.423.195-.554.456-.521.879.065,1.237.13,2.442.195,3.81.554-.586.977-1.107,1.465-1.596.944-.977,2.084-1.661,3.354-2.117.195-.065.456-.293.651-.098.195.163.033.423,0,.651-.521,2.442-1.726,4.494-3.68,5.992-1.042.814-1.335,1.563-.912,2.768.326.912.456,1.889.716,2.833.033.065.065.13.163.261.619-2.573,2.149-4.461,4.331-6.122.163,1.237.163,2.345.033,3.452-.293,2.41-1.237,4.559-2.735,6.448-.228.293-.228.554-.13.847.749,1.986,1.661,3.908,2.898,5.894-.358-2.67.293-4.917,1.531-7.164.847,1.335,1.4,2.703,1.693,4.136.521,2.312.586,4.624-.326,6.904-.098.228,0,.358.098.488,1.172,1.563,2.442,3.061,3.94,4.591-.423-1.758-.684-3.322-.619-4.95.033-.749.163-1.465.293-2.214.065-.423.163-.586.554-.195,2.638,2.703,3.745,5.959,3.256,9.704-.033.293-.065.554.195.749,1.628,1.4,3.484,2.54,5.406,3.517-1.4-2.442-2.28-4.982-1.986-7.946,1.726,1.172,3.061,2.573,4.071,4.266.944,1.531,1.563,3.191,1.693,4.982.033.521.261.814.716,1.042,2.052,1.009,4.168,1.791,6.578,2.54-1.335-1.921-2.312-3.777-2.442-6.089,2.214,1.009,4.071,2.247,5.308,4.266.521.814.977,1.693,1.237,2.638.195.716.814.619,1.303.749.521.13.456-.358.586-.619.684-1.661,2.214-2.638,4.071-2.605,1.824.033,3.452,1.107,4.071,2.703.098.228.065.684.488.521.423-.163,1.042.065,1.27-.651,1.009-3.256,3.191-5.438,6.252-6.806.065-.033.13-.033.293-.033-.163,2.182-.977,4.071-2.28,5.764.195.195.391.098.521.033,2.084-.684,4.103-1.465,6.089-2.41.358-.163.521-.358.554-.781.358-3.843,2.345-6.773,5.308-9.118.488-.391.488-.033.488.326.098,2.28-.391,4.429-1.531,6.448-.13.228-.261.488-.488.879,2.052-1.009,3.777-2.247,5.471-3.55.293-.228.163-.488.13-.749-.586-3.712.521-6.904,3.094-9.606.456-.488.554-.293.651.228.456,2.149.488,4.299-.13,6.415-.033.13-.065.228-.13.554,1.531-1.498,2.768-2.996,3.908-4.591.098-.13.163-.228.098-.423-1.14-3.191-.716-6.317.521-9.378.195-.521.488-1.01.814-1.628,1.4,2.247,1.791,4.559,1.563,7.131,1.205-2.019,2.247-3.94,2.963-6.024.13-.391-.163-.619-.358-.879-1.433-1.856-2.312-3.94-2.605-6.252-.163-1.107-.13-2.214.065-3.419,2.117,1.661,3.615,3.615,4.396,6.317.358-1.661.651-3.126.977-4.592.098-.423-.163-.586-.423-.814-2.084-1.531-3.582-3.452-4.233-5.992-.098-.358-.163-.684-.228-1.042-.033-.098,0-.195.033-.358,2.28.651,4.005,1.986,5.406,4.038.195-1.531.293-2.931.293-4.331,0-.391-.391-.423-.651-.554-2.54-1.368-4.233-3.387-5.015-6.155-.228-.782-.163-.814.586-.619,1.986.586,3.647,1.628,5.08,3.419-.033-1.661.033-3.061-.13-4.494-.033-.358-.326-.423-.554-.554-3.452-1.693-5.373-4.494-6.122-8.206,0-.065,0-.163.033-.326,2.54.749,4.526,2.214,6.317,4.364,0-1.498-.261-2.768-.488-4.038-.065-.326-.391-.358-.651-.488-2.768-1.433-5.047-3.387-6.057-6.48-.293-.879-.521-1.758-.554-2.703-.033-.488.098-.554.586-.423,2.052.586,3.778,1.726,5.243,3.256.13.13.195.358.456.391-.13-3.777,1.009-6.969,4.038-9.378.977-.781,1.042-.749,1.303.423,1.075,4.722.326,9.053-3.159,12.635-.163.163-.261.293-.228.521.195,1.205.358,2.41.586,3.745,1.107-2.442,2.573-4.364,4.917-5.731.326,1.986.195,3.843-.293,5.666-.619,2.377-1.759,4.429-3.68,5.992-.293.228-.326.456-.326.782v3.777c.065,0,.163.033.228.033.261-.358.521-.749.847-1.107,1.075-1.27,2.247-2.377,3.777-3.094.456-.195.619-.13.521.358-.488,3.354-1.921,6.155-4.885,8.011-.195.13-.358.228-.358.521v3.647c.13.033.163-.228.293-.358,1.172-1.172,2.507-2.117,4.103-2.67.195-.065.423-.195.586-.098.228.163.033.391-.033.554-.749,3.061-2.507,5.373-5.21,6.936-.358.195-.488.423-.554.814-.195,1.205-.488,2.41-.749,3.68,1.726-1.368,3.452-2.573,5.699-3.094-.488,1.986-1.498,3.582-2.735,5.047-1.205,1.335-2.573,2.442-4.233,3.126-.293.13-.456.326-.554.586-.847,1.856-1.628,3.777-2.866,5.634,2.377-1.107,4.559-2.214,7.197-2.182-.716,1.563-1.791,2.735-3.061,3.712-1.986,1.531-4.168,2.703-6.708,3.094-.228.033-.391.13-.521.293-.716.847-1.27,1.791-2.182,2.67,2.279-.554,4.396-.684,6.513-.13.26.065.684.033.749.293.065.326-.326.488-.554.651-2.67,1.889-5.634,2.898-8.89,2.735-1.335-.065-1.954.781-2.768,1.433,2.507.098,4.852.651,7.066,2.084-1.172.619-2.312.879-3.484,1.107-2.117.423-4.136.13-6.122-.619-.456-.163-.814-.163-1.237.098-.814.488-1.693.977-2.67,1.531,2.507.195,4.624.977,6.676,2.279-1.205.586-2.345.912-3.517,1.009-2.312.195-4.591,0-6.676-1.172-.195-.13-.391-.13-.586-.033-.944.391-1.889.781-2.996,1.237,1.14.293,2.052.586,2.898,1.009.879.423,1.726.879,2.475,1.661-2.801.847-5.503.781-8.174-.098-.13-.033-.26-.065-.358-.13-1.27-.879-2.573-.684-3.908-.098-.879.391-1.856.586-2.833.749-.326.033-.456.163-.554.521-.619,2.182-2.084,3.354-4.136,3.354-2.117,0-3.68-1.14-4.299-3.256-.098-.391-.326-.488-.619-.554-1.531-.326-3.028-.814-4.494-1.4-.358-.163-.619-.033-.944.13-2.768,1.368-5.666,1.759-8.695,1.075-.26-.065-.488-.13-.749-.228-.065-.033-.098-.098-.228-.195,1.433-1.27,3.126-1.954,5.08-2.573-1.107-.456-2.019-.814-2.963-1.237-.326-.13-.521.098-.782.195-3.159,1.4-6.317,1.433-9.509.195-.065-.033-.098-.098-.228-.195,1.889-1.4,3.973-2.149,6.448-2.279-1.042-.716-2.019-1.27-2.996-1.759-.261-.13-.488.065-.716.163-2.996,1.107-5.992,1.075-8.955-.13-.261-.228-.521-.293-.717-.619h0ZM128.181,82.179c-.814,2.052-2.052,3.452-3.81,4.429.521-1.986,2.019-3.224,3.81-4.429h0ZM122.645,86.934c-1.661-1.075-2.833-2.54-3.647-4.559,1.889,1.14,3.191,2.507,3.647,4.559h0ZM119.128,74.559c1.824.619,3.615,2.475,4.103,4.233-1.889-.977-3.159-2.377-4.103-4.233h0ZM128.441,73.029c-.651,2.084-1.661,3.908-3.615,5.047.651-2.084,1.889-3.745,3.615-5.047h0ZM121.961,96.312c.977-2.54,3.028-3.712,4.95-4.982-1.075,2.149-2.703,3.745-4.95,4.982h0ZM120.431,95.758c-1.27-1.27-2.345-4.103-2.312-6.089,1.498,1.14,2.8,4.526,2.312,6.089h0ZM116.686,107.026c1.596-2.28,4.071-3.061,6.545-3.875-1.726,1.986-3.94,3.224-6.545,3.875h0ZM115.058,106.57c-.716-2.052-.521-5.438.391-7.197.782,2.475.814,4.754-.391,7.197h0ZM122.873,70.196c-2.345-1.14-3.908-2.963-4.852-5.568,2.182,1.498,4.168,2.963,4.852,5.568h0ZM124.534,69.381c-.684-2.182.879-6.187,3.159-8.141.488,2.214-1.205,6.871-3.159,8.141h0ZM116.36,54.663c3.224,1.27,5.047,3.549,5.666,6.871-2.996-1.368-4.884-3.582-5.666-6.871h0ZM123.036,59.352c-1.433-3.354-.098-8.76,2.638-10.583,1.205,2.898-.326,8.89-2.638,10.583h0ZM112.42,118.325c-1.921.554-4.885.391-6.383-.358,2.182-1.009,4.201-.326,6.383.358h0ZM118.086,112.106c-2.312,1.205-4.559,1.693-6.969,1.824.977-1.433,3.615-2.117,6.969-1.824h0ZM107.763,114.255c-.423-2.019.228-4.754,1.628-6.741.684,1.661-.358,5.894-1.628,6.741h0ZM97.31,126.108c-1.954.195-3.81-.195-5.666-.847,1.27-.814,4.494-.326,5.666.847h0ZM105.386,122.656c-1.563.423-4.201.163-5.862-.521.782-.879,3.81-.586,5.862.521h0ZM87.052,125.001c.619-2.019,1.856-3.582,3.68-4.689-.749,1.921-1.531,3.843-3.68,4.689h0ZM98.58,120.507c.163-2.638,1.368-4.754,3.191-6.545-.358,2.54-1.335,4.754-3.191,6.545h0ZM68.458,125.164c-1.986.847-3.875,1.107-5.862.847,1.856-.716,3.582-1.856,5.862-.847h0ZM69.045,120.149c1.791,1.27,2.996,2.801,3.778,4.754-1.368-.195-3.452-2.801-3.778-4.754h0ZM80.011,130.004c-1.791,0-3.126-1.335-3.126-3.126,0-1.726,1.368-3.061,3.094-3.061,1.791,0,3.224,1.335,3.224,3.028.033,1.824-1.368,3.191-3.191,3.159h0ZM54.521,122.624c1.889-.716,3.745-1.531,5.829-.619-1.889.814-3.843.977-5.829.619h0ZM47.585,118.325c1.986-.716,4.005-1.335,6.285-.293-2.214.684-4.233.814-6.285.293h0ZM48.562,113.766c-2.312.033-4.526-.456-6.513-1.661,2.345-.065,4.657-.033,6.513,1.661h0ZM36.578,103.15c2.442.847,4.95,1.596,6.708,3.973-2.768-.716-4.982-1.954-6.708-3.973h0ZM44.752,106.602c-1.205-2.312-1.107-4.722-.358-7.131.944,2.312,1.107,4.689.358,7.131h0ZM61.294,120.703c-1.856-2.019-2.833-4.298-3.419-6.904,1.758,1.205,3.615,4.885,3.419,6.904h0ZM52.111,114.287c-1.303-.879-2.182-4.168-1.791-6.708,1.335,1.4,2.247,4.852,1.791,6.708h0ZM31.694,82.277c1.954,1.107,3.55,3.061,3.745,4.526-1.498-.716-3.387-2.996-3.745-4.526h0ZM37.132,87.096c.098-1.628,1.693-3.68,3.582-4.624-.782,1.921-1.954,3.354-3.582,4.624h0ZM40.649,74.429c-.716,1.954-2.377,3.647-4.168,4.299.814-1.987,2.214-3.322,4.168-4.299h0ZM34.917,78.239c-1.856-1.303-2.898-3.093-3.615-5.21,1.596.879,3.647,3.81,3.615,5.21h0ZM37.816,96.312c-2.149-1.107-3.745-2.768-4.95-4.852,1.693.391,4.592,3.224,4.95,4.852h0ZM41.756,89.474c-.26,2.377-.781,4.494-2.279,6.252-.619-1.27.391-4.103,2.279-6.252h0ZM41.723,64.757c-.944,2.507-2.442,4.396-4.754,5.601.065-1.628,2.149-4.233,4.754-5.601h0ZM31.921,61.11c1.693,1.237,4.005,4.819,3.452,8.499-2.377-2.41-3.419-5.178-3.452-8.499h0ZM37.783,61.566c.554-3.354,2.735-6.024,5.634-6.903-.619,3.321-2.605,5.471-5.634,6.903h0ZM36.871,59.449c-1.237-1.172-1.954-2.475-2.442-3.94-.651-2.052-.912-4.168-.488-6.285.033-.163-.033-.391.195-.456.195-.033.293.163.423.293,1.498,1.531,2.41,3.387,2.638,5.503.195,1.563.065,3.159-.326,4.885h0Z" style="fill: #d4b17e; fill-rule: evenodd;"/>
    <path id="shield" d="M110.042,38.942c1.021,0,1.848.827,1.848,1.848v44.301c.057,15.429-11.288,25.772-27.691,33.857-2.65,1.306-5.749,1.306-8.399,0-16.403-8.085-27.747-18.428-27.691-33.857v-44.301c0-1.021.827-1.848,1.848-1.848h60.085Z" style="fill: #dbba85; stroke: #dbba85; stroke-miterlimit: 2.613; stroke-width: 1.5px;"/>
  </g>
  <path id="quadrant-tl" d="M78.037,39.932c.701,0,1.269.568,1.269,1.269v32.974c0,.194-.157.351-.351.351h-28.521c-.701,0-1.269-.568-1.269-1.269v-32.056c0-.701.568-1.269,1.269-1.269h27.604Z" style="fill: #2c2e72; fill-rule: evenodd;"/>
  <path id="quadrant-br" d="M80.701,116.651c0,.931.969,1.546,1.81,1.148,5.574-2.639,11.475-5.559,16.145-9.466,4.536-3.825,8.327-8.226,10.528-13.811,1.016-2.539,1.557-6.443,1.557-7.887,0-2.878,0-6.431,0-9.498,0-.701-.568-1.267-1.269-1.267h-16.842c-.061,0-.117.004-.169.011h-10.492c-.701,0-1.269.568-1.269,1.269v39.502Z" style="fill: #732426; fill-rule: evenodd;"/>
  <g id="elements">
    <path id="sierra-nevada" d="M103.961,56.076c.252.254.236.243.576-.131.094-.103.451-.501.534-.547.078.164.5,1.679.557,1.928-.1-.081-.747-.912-.837-.981-.125.081-.235.244-.334.358-.166-.109-.379-.462-.496-.627h0ZM96.406,58.284c.296-.554.263-.666.603-.878.473-.294.641-.349.991-.805l2.235-2.513c.246-.248.86-1.037,1.017-1.126-.044.268-.424.887-.471,1.088.119-.06.367-.401.544-.494.119.167.189.356.076.557l-.525.945c-.09.161-.187.306-.261.459.181-.154.391-.38.547-.548l.545-.558,1.171,1.63c.062.083.163.23.224.327.106.17.376.531.437.679l-1.145-1.232c-.093-.12-.127-.151-.211-.246-.136-.154-.294-.391-.428-.513l.106.923c-.101.054-.348.279-.448.365-.223.193-.211.221-.36.478-.212.366-.396.727-.605,1.1-.122.217-.145.352-.378.451l-1.082.503c-.135.067-.376.201-.519.246l1.24-1.523c.094-.114.313-.353.382-.484-.402.252-2.59,1.769-2.901,1.91l.978-1.409c.089-.127.086-.044.135-.21l-1.801,1.417c-.132.108-.467.406-.6.462l.504-.999h0ZM87.084,56.761c.15.069.191.216.407.182.208-.033.276-.08.384-.229.179-.248.367-.475.558-.709.197-.241.372-.457.571-.693l.568-.697c.358-.513.759-.925,1.133-1.396l.415-.537c.194-.238.52-.674.693-.836l-.331,2.599.643-.042c-.04.221-.155.497-.159.717.201.167.372.487.54.697.186.233.449.458.132.801l-1.191,1.202.382-1.604-1.153.653c-.172.101-1.027.63-1.115.647.093-.331.456-1.464.479-1.762-.259.252-1.575,2.079-1.759,2.227l-.333-.781c-.153.061-1.741,1.319-2.115,1.596-.17.126-.552.452-.708.518.115-.218.339-.451.494-.66.211-.285,1.34-1.798,1.466-1.893h0ZM94.318,54.045c.055-.129,1.29-1.564,1.482-1.791l1.134-1.332c.139-.165.224-.299.359-.426.088.447.027.824-.016,1.253.102-.043.298-.276.379-.365.201-.22.235-.085.347.143.131.267.406.73.489.998-.036-.04-.208-.221-.249-.246-.093.056-.721.91-.869,1.093-.21.258-.136.295-.499.464-.177.082-.434.219-.62.273.175-.399.79-1.555.869-1.793-.121.077-.242.21-.364.316-.123.107-.238.217-.356.322-.179.16-.543.531-.745.636.09-.322.303-.672.369-.957-.109.065-.607.759-.747.928-.578.697-.24.545-.964.486h0ZM100.409,52.937l-2.682-3.373c-.236-.193-.504.263-.705.505l-2.774,3.278c-.231.268-.254.091-.665-.422-.423-.528-1.043-1.4-1.46-1.886-.266-.311-.546.219-.732.441-.11.132-.203.245-.313.376-.213.254-.387.438-.606.745l-1.2,1.473c-.412.481-.809.993-1.215,1.487-.201.245-.474.659-.655.618-.149-.034-.197-.262-.367-.26-.14.002-.271.23-.346.326l-2.405,2.973c-.133.162-1.047,1.108-.205,1.104h5.376c6.352-.01,12.705-.014,19.057-.001.195,0,.391-.002.586,0,.19.001.39.029.451-.186.063-.225-.111-.393-.183-.485-.486-.624-1.045-1.29-1.5-1.897-.761-1.015-1.553-1.966-2.356-3.035-.251-.334-.342-.324-.707.145-.458.59-.461.545-.67.273l-1.186-1.523c-.232-.244-.923-1.17-1.177-1.502-.369-.483-.359-.264-1.026.463-.118.128-.194.263-.334.363h0Z" style="fill: #fff; fill-rule: evenodd;"/>
    <path id="grape-leaf" d="M75.121,93.512c-.235-1.409-.808-2.519-1.893-3.395.641-.196,1.213.019,1.874.012-.314-.644-.715-1.067-1.188-1.468-.509-.39-1.18-.419-1.831-.766.491-.306.886-.543,1.388-.813-1.636-1.02-3.495-.117-5.072.715l-.007-.008-.486.672-1.197,2.418.588.56,3.12-.544.344-.143.372.429.972,1.723-1.373-1.695-3.149.601,1.03.916-.315.887.029-.887-1.863-1.354-.912,2.883.869,1.065-.869-.742-.618,2.147.618,2.324-.765-1.853-.353,1.853.029-1.559.471-1.794s-.647.176-.794.265c-.147.088-1.059,1-1.059,1l-.324.941.177-1.147,1-1.03,1.03-.324.559-1.971.471-2.206.471-.853-.588-.5-1.353-.176-2.03.765-1.824.882,1.559-1.088,2.118-.912.529-.088,1.265.294.412.147.324-.147.677-1.088-1.559-.882-2.412.618-1-.412-1.618.265,1.559-.529,1.059.412,2.235-.765h.412l.176.235,1.088.618.294-.029.374-.464-.25-.285c-.34-.987-.173-1.838-1.097-2.569-.853-.752-1.861-.99-2.989-1.113.092.556.401.93.328,1.458-1.054-.263-2.083-.572-3.234-.259.295.455.859.517.915,1.084-1.181.088-2.261.378-3.174,1.086.237.395.772.232.938.649-1.256.734-1.764,1.24-2.084,2.233.739.125,1.501-.186,2.295.117-.931.907-1.708,1.807-1.777,3.113.652-.16,1.464-.564,1.729-.333.645.582,1.142.041,1.685.031.225-.03.452-.177.742.007-1.065,1.104-2.352,2.121-2.058,3.978.406-.202.812-.404,1.278-.663-.27.901-.467,1.662-.323,2.514.073.367,0,.896.351,1.022.361.162.401-.473.7-.642.025-.047.071-.022.189-.019-.174.832-.113,1.671.183,2.515.324-.216.204-.608.55-.752.117.51.187.995.328,1.458.076.249.053.685.346.751.329.055.387-.391.604-.574.338-.298.616-1.045.988-.847.744.396.652-.16.826-.486.272-.511.273-1.018.346-1.547.501.237.507.897.962,1.109.67-.867.873-1.864,1.028-2.885.43.258.489.708.921.848.399-.862.434-1.769.329-2.75.676.3.872.942,1.465,1.228.399-.862.398-1.758.422-2.7.774.621,1.345,1.343,2.009,2.114.337-1.194.353-2.289.147-3.473.454.212.851.364,1.341.565Z" style="fill: #fff; fill-rule: evenodd;"/>
    <g id="dollar-sign">
      <rect x="84.786" y="81.42" width="19.382" height="22.08" style="fill: none;"/>
      <path d="M93.783,100.279v-.656c-1.154-.107-2.191-.481-2.855-1.088-.506-.439-.789-.945-.789-1.436,0-.557.383-.88.889-.88.315,0,.548.091.971.515.748.805,1.569,1.179,2.557,1.179,1.32,0,2.059-.598,2.059-1.544,0-.73-.506-1.162-1.734-1.453l-1.686-.39c-1.893-.423-2.88-1.494-2.88-3.104,0-1.843,1.37-3.129,3.52-3.328v-.664c0-.498.332-.697.706-.697.381,0,.713.207.713.697v.688c1.038.133,1.959.515,2.574,1.096.465.456.738.963.738,1.428,0,.481-.357.806-.822.806-.381,0-.664-.142-1.029-.523-.722-.805-1.369-1.121-2.299-1.121-1.146,0-1.876.615-1.876,1.461,0,.706.515,1.188,1.569,1.42l1.685.382c2.05.448,3.038,1.444,3.038,3.088,0,1.909-1.395,3.221-3.627,3.462v.664c0,.498-.332.705-.706.705-.382,0-.714-.207-.714-.705Z" style="fill: #dbba85;"/>
    </g>
    <path id="briefcase" d="M67.584,56.405v1.005c0,.402-.268.67-.67.67s-.67-.268-.67-.67v-1.005h-4.019v1.005c0,.402-.268.67-.67.67s-.67-.268-.67-.67v-1.005h-1.34c-.469,0-.938-.134-1.34-.335v2.679c0,1.139.871,2.01,2.01,2.01h8.038c1.139,0,2.01-.871,2.01-2.01v-2.679c-.402.201-.871.335-1.34.335h-1.34ZM70.263,50.041h-2.679v-.67c0-1.139-.871-2.01-2.01-2.01h-2.679c-1.139,0-2.01.871-2.01,2.01v.67h-2.679c-.402,0-.67.268-.67.67v2.679c0,1.139.871,2.01,2.01,2.01h9.378c1.139,0,2.01-.871,2.01-2.01v-2.679c0-.402-.268-.67-.67-.67ZM66.244,50.041h-4.019v-.67c0-.402.268-.67.67-.67h2.679c.402,0,.67.268.67.67v.67Z" style="fill: #dbba84;"/>
  </g>
  <g id="handshake">
    <path id="Handshake_Left_Line" d="M74.951,68.718c-.456.749-.879,1.368-1.238,2.052-.391.716-.814,1.465-.26,2.247.619.847,1.531.944,2.507.684,1.237-.358,2.247-.977,2.866-2.149.326-.651,1.758-.944,2.345-.488,2.768,2.214,5.569,4.429,8.336,6.61.065.065.163.13.228.195.26.326.781.554.391,1.075-.358.488-1.075.554-1.563.163-1.563-1.205-3.126-2.41-4.689-3.647-.26-.195-.554-.391-.814-.554-.228-.13-.488-.326-.684-.033-.228.293-.065.554.163.749.391.358.782.716,1.205,1.075,1.172.944,2.377,1.889,3.55,2.833.293.228.814.456.488.977-.326.521-.847.521-1.368.228-1.14-.651-2.182-1.465-3.224-2.247-.586-.423-1.14-.879-1.726-1.303-.326-.228-.781-.554-1.107-.13-.358.488.163.716.488.944,1.303,1.042,2.638,2.052,3.94,3.094.26.195.781.391.423.912-.326.521-.782.554-1.27.228-1.042-.716-2.084-1.4-3.126-2.149-.423-.293-.814-.651-1.368-.586-.228.033-.391-.065-.488-.293-.065-.13-.163-.195-.195-.326-.358-.944-1.661-.195-2.019-1.14-.326-.977-1.075-1.237-2.019-1.172-.293.033-.358-.228-.488-.423-.847-1.075-2.019-1.172-2.996-.228-.195.163-.326.391-.554.554-.326.228-.423.847-1.009.586-.912-.456-1.238-.944-1.01-1.726.586-1.889,1.368-3.647,2.573-5.21.879-1.205,2.182-1.433,3.712-1.4h0Z" style="fill: none; stroke: #dbba85; stroke-linecap: round; stroke-linejoin: round; stroke-width: 1.731px;"/>
    <path id="Handshake_Left_Fill" d="M74.951,68.718c-.456.749-.879,1.368-1.238,2.052-.391.716-.814,1.465-.26,2.247.619.847,1.531.944,2.507.684,1.237-.358,2.247-.977,2.866-2.149.326-.651,1.758-.944,2.345-.488,2.768,2.214,5.569,4.429,8.336,6.61.065.065.163.13.228.195.26.326.781.554.391,1.075-.358.488-1.075.554-1.563.163-1.563-1.205-3.126-2.41-4.689-3.647-.26-.195-.554-.391-.814-.554-.228-.13-.488-.326-.684-.033-.228.293-.065.554.163.749.391.358.782.716,1.205,1.075,1.172.944,2.377,1.889,3.55,2.833.293.228.814.456.488.977-.326.521-.847.521-1.368.228-1.14-.651-2.182-1.465-3.224-2.247-.586-.423-1.14-.879-1.726-1.303-.326-.228-.781-.554-1.107-.13-.358.488.163.716.488.944,1.303,1.042,2.638,2.052,3.94,3.094.26.195.781.391.423.912-.326.521-.782.554-1.27.228-1.042-.716-2.084-1.4-3.126-2.149-.423-.293-.814-.651-1.368-.586-.228.033-.391-.065-.488-.293-.065-.13-.163-.195-.195-.326-.358-.944-1.661-.195-2.019-1.14-.326-.977-1.075-1.237-2.019-1.172-.293.033-.358-.228-.488-.423-.847-1.075-2.019-1.172-2.996-.228-.195.163-.326.391-.554.554-.326.228-.423.847-1.009.586-.912-.456-1.238-.944-1.01-1.726.586-1.889,1.368-3.647,2.573-5.21.879-1.205,2.182-1.433,3.712-1.4h0Z" style="fill: #fff; fill-rule: evenodd;"/>
    <path id="Handshake_Right_Line" d="M81.757,66.504c.716-.065,1.433.293,2.052.716,1.726,1.14,3.484,1.27,5.34.488.619-.261,1.042-.163,1.465.358,1.693,1.856,2.573,4.071,2.8,6.545.098,1.075-.195,1.303-1.172,1.009-.586-.163-.912.163-1.238.521-.716.814-.684.814-1.563.13-2.605-2.052-5.21-4.103-7.783-6.187-.326-.261-.651-.391-1.075-.326-1.14.195-2.214.293-2.866,1.531-.456.847-1.433,1.238-2.377,1.4-.944.163-1.238-.228-.814-1.075.228-.488.586-.912.847-1.368.847-1.465,1.824-2.735,3.712-3.028.847-.13,1.628-.716,2.67-.716h0Z" style="fill: none; stroke: #dbba85; stroke-linecap: round; stroke-linejoin: round; stroke-width: 1.731px;"/>
    <path id="Handshake_Right_Fill" d="M81.757,66.504c.716-.065,1.433.293,2.052.716,1.726,1.14,3.484,1.27,5.34.488.619-.261,1.042-.163,1.465.358,1.693,1.856,2.573,4.071,2.8,6.545.098,1.075-.195,1.303-1.172,1.009-.586-.163-.912.163-1.238.521-.716.814-.684.814-1.563.13-2.605-2.052-5.21-4.103-7.783-6.187-.326-.261-.651-.391-1.075-.326-1.14.195-2.214.293-2.866,1.531-.456.847-1.433,1.238-2.377,1.4-.944.163-1.238-.228-.814-1.075.228-.488.586-.912.847-1.368.847-1.465,1.824-2.735,3.712-3.028.847-.13,1.628-.716,2.67-.716h0Z" style="fill: #fff; fill-rule: evenodd;"/>
    <path d="M75.863,78.39c-.033.098-.098.293-.195.423-.554.847-1.14,1.661-1.824,2.377-.456.488-.912.261-1.303-.033-.456-.326-.065-.651.098-.912.586-.781,1.205-1.563,1.791-2.312.26-.326.619-.358.977-.195.26.13.488.293.456.651h0Z" style="fill: none; stroke: #dbba85; stroke-linecap: round; stroke-linejoin: round; stroke-width: 1.731px;"/>
    <path d="M75.863,78.39c-.033.098-.098.293-.195.423-.554.847-1.14,1.661-1.824,2.377-.456.488-.912.261-1.303-.033-.456-.326-.065-.651.098-.912.586-.781,1.205-1.563,1.791-2.312.26-.326.619-.358.977-.195.26.13.488.293.456.651h0Z" style="fill: #fefefc; fill-rule: evenodd;"/>
    <path d="M73.583,77.055c-.065.13-.098.26-.195.358-.488.716-1.042,1.4-1.628,2.052-.456.521-.912.293-1.368-.033-.521-.391-.163-.781.098-1.107.521-.619,1.042-1.205,1.563-1.791.195-.228.456-.326.781-.163.325.163.553.423.749.684h0Z" style="fill: none; stroke: #dbba85; stroke-linecap: round; stroke-linejoin: round; stroke-width: 1.731px;"/>
    <path d="M73.583,77.055c-.065.13-.098.26-.195.358-.488.716-1.042,1.4-1.628,2.052-.456.521-.912.293-1.368-.033-.521-.391-.163-.781.098-1.107.521-.619,1.042-1.205,1.563-1.791.195-.228.456-.326.781-.163.325.163.553.423.749.684h0Z" style="fill: #fefdfc; fill-rule: evenodd;"/>
    <path d="M75.798,82.916c-.456,0-.716-.261-.912-.554-.195-.261,0-.488.163-.684.554-.716,1.107-1.433,1.661-2.117.26-.326.521-.456.912-.228.326.195.586.488.423.879-.456.977-1.107,1.856-1.921,2.573-.098.098-.228.098-.326.13h0Z" style="fill: none; stroke: #dbba85; stroke-linecap: round; stroke-linejoin: round; stroke-width: 1.731px;"/>
    <path d="M75.798,82.916c-.456,0-.716-.261-.912-.554-.195-.261,0-.488.163-.684.554-.716,1.107-1.433,1.661-2.117.26-.326.521-.456.912-.228.326.195.586.488.423.879-.456.977-1.107,1.856-1.921,2.573-.098.098-.228.098-.326.13h0Z" style="fill: #fefffe; fill-rule: evenodd;"/>
    <path d="M80.259,81.516c-.065,1.107-.521,1.856-1.107,2.507-.423.423-.847.326-1.303-.033-.456-.358-.358-.716-.065-1.14.391-.554.716-1.107,1.14-1.661.195-.261.293-.749.814-.488.391.228.554.554.521.814h0Z" style="fill: none; stroke: #dbba85; stroke-linecap: round; stroke-linejoin: round; stroke-width: 1.731px;"/>
    <path d="M80.259,81.516c-.065,1.107-.521,1.856-1.107,2.507-.423.423-.847.326-1.303-.033-.456-.358-.358-.716-.065-1.14.391-.554.716-1.107,1.14-1.661.195-.261.293-.749.814-.488.391.228.554.554.521.814h0Z" style="fill: #fcfdfa; fill-rule: evenodd;"/>
    <path d="M81.352,82.713c.046-.251-.023-.456.137-.547.182-.091.251.137.388.205.114.046.205.137.319.205.137.114.411.205.296.433-.114.228-.365.274-.616.205-.274-.091-.616-.16-.525-.502h0Z" style="fill: none; stroke: #dbba85; stroke-linecap: round; stroke-linejoin: round; stroke-width: 1.731px;"/>
    <path d="M81.106,82.721c.065-.358-.033-.651.195-.781.26-.13.358.195.554.293.163.065.293.195.456.293.195.163.586.293.423.619-.163.326-.521.391-.879.293-.391-.13-.879-.228-.749-.716h0Z" style="fill: #f9f6f2; fill-rule: evenodd;"/>
  </g>
</svg>