<?xml version="1.0" encoding="UTF-8"?>
<svg xmlns="http://www.w3.org/2000/svg" width="17.6079" height="19.35479" viewBox="0 0 17.6079 19.35479">
  <g id="fcc-biz-fin-logo">
    <g id="elements">
      <path id="grape-leaf" d="M17.6079,9.95242c-.23522-1.40853-.80797-2.51931-1.89349-3.3955.64142-.19577,1.21346.01912,1.87373.01234-.31361-.64448-.71533-1.06723-1.18827-1.46818-.50881-.39021-1.17983-.41904-1.83096-.76571.49097-.30568.88591-.54308,1.38781-.81321-1.63583-1.01986-3.49498-.11694-5.07192.71507l-.00716-.00812-.4865.67204-1.19677,2.41797.58809.56015,3.12006-.54391.34353-.14309.37211.42934.97178,1.72329-1.37253-1.69465-3.1487.60113,1.03047.91596-.31483.88732.02858-.88732-1.86312-1.35418-.91187,2.88266.86903,1.06544-.86903-.74192-.61769,2.14726.61769,2.32372-.76475-1.85308-.353,1.85308.02941-1.55897.47064-1.79426s-.64711.17647-.79416.26476c-.14705.08823-1.05892,1.00004-1.05892,1.00004l-.32358.94128.17653-1.14716,1.00004-1.02951,1.02951-.32352.55887-1.97079.47064-2.20608.47064-.85305-.58828-.50005-1.3531-.17647-2.02955.76481-1.82374.88239,1.55897-1.08833,2.11785-.9118.52946-.0883,1.2648.29417.41182.14705.32358-.14705.67652-1.08833-1.55897-.88246-2.41196.61769-1.0001-.41175-1.6178.2647,1.55897-.52946,1.05892.41182,2.23549-.76475h.41182l.17647.23529,1.08833.61769.29411-.02941.37384-.46354-.24999-.28452c-.34014-.98699-.17295-1.83838-1.0969-2.56918-.85292-.75241-1.86056-.99025-2.98873-1.11327.09181.55625.4005.92951.32812,1.45808-1.05394-.26265-2.08332-.57172-3.23444-.25933.29475.45549.85893.51693.91519,1.08405-1.18085.08779-2.26068.37844-3.17447,1.08597.2374.395.77185.23184.93808.64858-1.25623.73412-1.76415,1.2398-2.08415,2.23344.7393.12487,1.50143-.18574,2.29527.11732-.93073.90739-1.70795,1.80686-1.77661,3.11334.65241-.1601,1.46416-.56373,1.72924-.33305.64512.58202,1.14217.04086,1.68455.03114.22474-.02967.45242-.17711.74231.0071-1.06525,1.10432-2.3523,2.12053-2.05781,3.97841.40581-.20191.81174-.40363,1.27797-.6629-.27045.90062-.46655,1.66178-.32333,2.51406.07321.36725.00077.89563.35101,1.02248.36131.16246.40101-.47307.70005-.64218.02474-.04661.07116-.0218.189-.01886-.17448.83246-.1133,1.67074.18337,2.51509.32365-.21566.20402-.60759.54954-.75203.11656.50971.1867.99486.32812,1.45808.07615.24942.05332.68496.34628.75126.32857.05543.38707-.39085.60388-.5739.33765-.29782.61597-1.04505.98795-.84697.74435.39609.65248-.1601.82575-.48579.27218-.5115.27339-1.01839.34583-1.54683.50075.23657.5074.89678.96174,1.10873.67038-.86673.87261-1.86351,1.02823-2.88483.42953.25843.48873.70772.92127.84844.39916-.86193.43407-1.76856.3294-2.74954.67581.30012.87165.94153,1.46543,1.22772.39922-.86193.39833-1.75769.42243-2.69999.77376.62076,1.34466,1.34261,2.00871,2.11375.33676-1.19351.35293-2.28913.14731-3.47305.45434.21201.85113.36361,1.34101.56463Z" style="fill: #fff; fill-rule: evenodd;"/>
    </g>
  </g>
</svg>