<?xml version="1.0" encoding="UTF-8"?>
<svg id="Layer_2" data-name="Layer 2" xmlns="http://www.w3.org/2000/svg" width="26.56747" height="19.53684" viewBox="0 0 26.56747 19.53684">
  <g id="fcc-biz-fin-logo">
    <g id="handshake">
      <path id="Handshake_Left_Line" d="M7.22051,3.08753c-.45589.74891-.87921,1.36766-1.23751,2.05155-.39061.71634-.81407,1.46538-.26044,2.24687.61862.84676,1.53052.94434,2.50743.68389,1.23738-.3583,2.24687-.97691,2.86563-2.14916.32559-.65131,1.75841-.94435,2.34458-.48845,2.76802,2.21429,5.5685,4.4286,8.33642,6.61042.06514.06516.16284.13019.228.19532.26046.32572.78149.55362.39075,1.07466-.3583.48845-1.07477.5536-1.56322.16285-1.5631-1.20493-3.12609-2.40973-4.68918-3.64724-.26046-.1953-.55362-.39061-.81419-.5536-.22787-.13016-.48845-.32559-.68378-.03255-.22787.29313-.06513.55359.16275.74904.39075.35816.7816.71634,1.20492,1.07463,1.17225.94434,2.37715,1.88869,3.54951,2.83315.29317.22791.81421.45578.48847.97695-.32572.52103-.84676.52103-1.36766.22787-1.13968-.65119-2.18173-1.46539-3.2238-2.24699-.58618-.4232-1.13977-.87908-1.72597-1.30251-.32559-.228-.78147-.55362-1.1072-.13016-.35829.48846.16274.71633.48846.94422,1.30264,1.04218,2.6376,2.05166,3.94024,3.09363.26046.19529.7815.39075.42332.91178-.32571.52104-.7816.5536-1.27005.22787-1.04206-.71634-2.08414-1.40022-3.1261-2.14916-.4233-.29313-.81416-.65131-1.36766-.58616-.22787.03255-.39075-.06516-.48845-.29317-.06514-.13015-.16274-.1953-.19533-.32559-.35829-.94434-1.6608-.19543-2.01898-1.13979-.32572-.97692-1.07463-1.23738-2.01897-1.17222-.29317.03257-.3583-.228-.48847-.42332-.84675-1.07463-2.01898-1.17235-2.9959-.228-.19543.16284-.32572.39074-.5536.5536-.32572.228-.42333.84675-1.00949.5863-.91178-.45591-1.23752-.94435-1.00951-1.72596.5862-1.88871,1.36757-3.64713,2.5726-5.21022.8792-1.20506,2.18184-1.43293,3.71237-1.40035h0Z" style="fill: none; stroke: #dbba85; stroke-linecap: round; stroke-linejoin: round; stroke-width: 1.7308px;"/>
      <path id="Handshake_Left_Fill" d="M7.22051,3.08753c-.45589.74891-.87921,1.36766-1.23751,2.05155-.39061.71634-.81407,1.46538-.26044,2.24687.61862.84676,1.53052.94434,2.50743.68389,1.23738-.3583,2.24687-.97691,2.86563-2.14916.32559-.65131,1.75841-.94435,2.34458-.48845,2.76802,2.21429,5.5685,4.4286,8.33642,6.61042.06514.06516.16284.13019.228.19532.26046.32572.78149.55362.39075,1.07466-.3583.48845-1.07477.5536-1.56322.16285-1.5631-1.20493-3.12609-2.40973-4.68918-3.64724-.26046-.1953-.55362-.39061-.81419-.5536-.22787-.13016-.48845-.32559-.68378-.03255-.22787.29313-.06513.55359.16275.74904.39075.35816.7816.71634,1.20492,1.07463,1.17225.94434,2.37715,1.88869,3.54951,2.83315.29317.22791.81421.45578.48847.97695-.32572.52103-.84676.52103-1.36766.22787-1.13968-.65119-2.18173-1.46539-3.2238-2.24699-.58618-.4232-1.13977-.87908-1.72597-1.30251-.32559-.228-.78147-.55362-1.1072-.13016-.35829.48846.16274.71633.48846.94422,1.30264,1.04218,2.6376,2.05166,3.94024,3.09363.26046.19529.7815.39075.42332.91178-.32571.52104-.7816.5536-1.27005.22787-1.04206-.71634-2.08414-1.40022-3.1261-2.14916-.4233-.29313-.81416-.65131-1.36766-.58616-.22787.03255-.39075-.06516-.48845-.29317-.06514-.13015-.16274-.1953-.19533-.32559-.35829-.94434-1.6608-.19543-2.01898-1.13979-.32572-.97692-1.07463-1.23738-2.01897-1.17222-.29317.03257-.3583-.228-.48847-.42332-.84675-1.07463-2.01898-1.17235-2.9959-.228-.19543.16284-.32572.39074-.5536.5536-.32572.228-.42333.84675-1.00949.5863-.91178-.45591-1.23752-.94435-1.00951-1.72596.5862-1.88871,1.36757-3.64713,2.5726-5.21022.8792-1.20506,2.18184-1.43293,3.71237-1.40035h0Z" style="fill: #fff; fill-rule: evenodd;"/>
      <path id="Handshake_Right_Line" d="M14.02639.87309c.71634-.06513,1.4328.29316,2.05154.71648,1.72584,1.13967,3.48439,1.26995,5.34049.48845.61865-.26058,1.04206-.16274,1.46539.3583,1.69327,1.85601,2.5726,4.07056,2.80047,6.54541.09772,1.07466-.1953,1.30252-1.17222,1.0095-.58618-.16284-.91178.16274-1.23751.52103-.71633.81407-.68378.81407-1.56308.13019-2.60506-2.05157-5.21022-4.10301-7.7828-6.18713-.32573-.26058-.65131-.39074-1.07476-.32571-1.13967.1953-2.2143.29313-2.86551,1.53051-.45587.84677-1.4328,1.23751-2.37714,1.40025-.94435.16274-1.23751-.228-.81419-1.07463.228-.48846.58618-.91179.84676-1.36768.84662-1.46538,1.82355-2.73544,3.71226-3.02847.84673-.1303,1.62823-.71648,2.67031-.71648h0Z" style="fill: none; stroke: #dbba85; stroke-linecap: round; stroke-linejoin: round; stroke-width: 1.7308px;"/>
      <path id="Handshake_Right_Fill" d="M14.02639.87309c.71634-.06513,1.4328.29316,2.05154.71648,1.72584,1.13967,3.48439,1.26995,5.34049.48845.61865-.26058,1.04206-.16274,1.46539.3583,1.69327,1.85601,2.5726,4.07056,2.80047,6.54541.09772,1.07466-.1953,1.30252-1.17222,1.0095-.58618-.16284-.91178.16274-1.23751.52103-.71633.81407-.68378.81407-1.56308.13019-2.60506-2.05157-5.21022-4.10301-7.7828-6.18713-.32573-.26058-.65131-.39074-1.07476-.32571-1.13967.1953-2.2143.29313-2.86551,1.53051-.45587.84677-1.4328,1.23751-2.37714,1.40025-.94435.16274-1.23751-.228-.81419-1.07463.228-.48846.58618-.91179.84676-1.36768.84662-1.46538,1.82355-2.73544,3.71226-3.02847.84673-.1303,1.62823-.71648,2.67031-.71648h0Z" style="fill: #fff; fill-rule: evenodd;"/>
      <path d="M8.13228,12.759c-.03258.09772-.09771.29317-.19543.42334-.5536.84673-1.13966,1.6608-1.82356,2.37714-.45588.48847-.91176.26058-1.30264-.03258-.45588-.32571-.06513-.6512.09771-.91178.5862-.78147,1.20493-1.56309,1.79113-2.312.26045-.32573.61861-.3583.97691-.19545.26046.13029.48847.29316.45589.65131h0Z" style="fill: none; stroke: #dbba85; stroke-linecap: round; stroke-linejoin: round; stroke-width: 1.7308px;"/>
      <path d="M8.13228,12.759c-.03258.09772-.09771.29317-.19543.42334-.5536.84673-1.13966,1.6608-1.82356,2.37714-.45588.48847-.91176.26058-1.30264-.03258-.45588-.32571-.06513-.6512.09771-.91178.5862-.78147,1.20493-1.56309,1.79113-2.312.26045-.32573.61861-.3583.97691-.19545.26046.13029.48847.29316.45589.65131h0Z" style="fill: #fefefc; fill-rule: evenodd;"/>
      <path d="M5.85271,11.42391c-.06513.13017-.09771.26046-.1953.35817-.48847.71648-1.04206,1.40026-1.62812,2.05157-.45588.52103-.91179.29316-1.36767-.03258-.52103-.39062-.16285-.78149.09772-1.1072.52103-.61865,1.04206-1.20481,1.56309-1.79098.19532-.22801.45589-.32572.78149-.16288.32549.16288.55349.42332.74879.68389h0Z" style="fill: none; stroke: #dbba85; stroke-linecap: round; stroke-linejoin: round; stroke-width: 1.7308px;"/>
      <path d="M5.85271,11.42391c-.06513.13017-.09771.26046-.1953.35817-.48847.71648-1.04206,1.40026-1.62812,2.05157-.45588.52103-.91179.29316-1.36767-.03258-.52103-.39062-.16285-.78149.09772-1.1072.52103-.61865,1.04206-1.20481,1.56309-1.79098.19532-.22801.45589-.32572.78149-.16288.32549.16288.55349.42332.74879.68389h0Z" style="fill: #fefdfc; fill-rule: evenodd;"/>
      <path d="M8.06714,17.28544c-.45588,0-.71646-.26058-.91179-.5536-.19542-.26058,0-.48845.16274-.68388.5536-.71634,1.10722-1.43283,1.66082-2.11659.26046-.32571.52104-.45588.91179-.22801.32559.19543.58616.48846.42317.87922-.45587.97691-1.1072,1.85613-1.92114,2.57257-.09758.09772-.22787.09772-.32559.13029h0Z" style="fill: none; stroke: #dbba85; stroke-linecap: round; stroke-linejoin: round; stroke-width: 1.7308px;"/>
      <path d="M8.06714,17.28544c-.45588,0-.71646-.26058-.91179-.5536-.19542-.26058,0-.48845.16274-.68388.5536-.71634,1.10722-1.43283,1.66082-2.11659.26046-.32571.52104-.45588.91179-.22801.32559.19543.58616.48846.42317.87922-.45587.97691-1.1072,1.85613-1.92114,2.57257-.09758.09772-.22787.09772-.32559.13029h0Z" style="fill: #fefffe; fill-rule: evenodd;"/>
      <path d="M12.52843,15.8852c-.06514,1.10721-.52104,1.85614-1.10722,2.50746-.4233.4233-.84675.32559-1.30264-.03257-.45588-.3583-.3583-.71648-.06513-1.13979.39072-.5536.71634-1.10721,1.13966-1.6607.19543-.26058.29313-.74904.81417-.48847.39088.2279.55373.5535.52117.81407h0Z" style="fill: none; stroke: #dbba85; stroke-linecap: round; stroke-linejoin: round; stroke-width: 1.7308px;"/>
      <path d="M12.52843,15.8852c-.06514,1.10721-.52104,1.85614-1.10722,2.50746-.4233.4233-.84675.32559-1.30264-.03257-.45588-.3583-.3583-.71648-.06513-1.13979.39072-.5536.71634-1.10721,1.13966-1.6607.19543-.26058.29313-.74904.81417-.48847.39088.2279.55373.5535.52117.81407h0Z" style="fill: #fcfdfa; fill-rule: evenodd;"/>
      <path d="M13.62155,17.08196c.04562-.25088-.02282-.45612.13688-.54737.18242-.09126.25087.1368.38775.20524.11398.04564.20524.13689.31931.20534.13679.11398.41057.20524.2965.43329-.11407.22814-.36494.27369-.6158.20532-.27369-.09126-.61582-.15969-.52464-.50182h0Z" style="fill: none; stroke: #dbba85; stroke-linecap: round; stroke-linejoin: round; stroke-width: 1.7308px;"/>
      <path d="M13.37506,17.09002c.06513-.35818-.03258-.65121.19543-.7815.26045-.13029.35817.19532.5536.29303.16274.06516.29303.19545.45588.29317.1953.16274.58618.29303.42332.61862-.16285.32572-.52104.39075-.8792.29314-.39075-.13029-.87922-.228-.74904-.71646h0Z" style="fill: #f9f6f2; fill-rule: evenodd;"/>
    </g>
  </g>
</svg>