<?xml version="1.0" encoding="UTF-8"?>
<svg id="Layer_2" data-name="Layer 2" xmlns="http://www.w3.org/2000/svg" width="99.9995" height="92.86652" viewBox="0 0 99.9995 92.86652">
  <g id="fcc-biz-fin-logo">
    <g id="base">
      <path id="laurel-wreath" d="M14.75142,80.19878c2.08413-1.40025,4.42872-1.88869,7.03388-1.88869-.91177-.87921-1.62812-1.59568-2.96333-1.49797-3.06105.16274-5.86153-.81417-8.43412-2.47486-.26046-.16274-.48847-.35829-.74892-.55362-.39074-.32571-.29314-.42332.16274-.5536,2.08413-.58616,4.16827-.55359,6.25239-.03257.16274.03257.32561.16275.52104.06516-.71646-.87922-1.43281-1.75855-2.11671-2.63774-.19531-.22788-.42319-.22788-.68377-.29303-3.25636-.71646-6.05696-2.21442-8.27126-4.75444-.52115-.58618-.94435-1.23738-1.30263-2.08413,2.60504.03257,4.78701,1.04206,7.00131,2.18184-.03258-.3583-.22801-.58617-.35829-.81417-.7815-1.46538-1.53054-2.96334-2.1166-4.52644-.16273-.42332-.42331-.68378-.8792-.87921-3.4518-1.62813-5.69867-4.36357-6.96874-8.10838,2.31213.55359,4.07055,1.79097,5.82896,3.19121-.29316-1.36767-.58618-2.67018-.81418-3.97282-.06514-.35817-.35817-.42333-.58618-.55362-2.63761-1.5631-4.36357-3.7774-5.11249-6.77329-.06513-.26059-.26057-.58618-.03257-.78163.19532-.16274.48846.06517.71634.13029,1.66083.61865,3.06106,1.66071,4.29856,2.99592-.09772-1.23748-.06514-2.47488-.09772-3.71236,0-.39076-.39074-.45589-.61875-.61863-2.70276-1.9864-4.26586-4.62415-4.46117-7.97822,0-.1303,0-.26059.03259-.45591,2.21429.94435,3.80996,2.47489,5.07991,4.68918.06514-1.62813.13016-3.02848.1953-4.4287,0-.26047-.1953-.39076-.35817-.5536C1.59556,29.65908.61863,25.91426.84651,21.71343c.03257-.84663.16286-.87908.8792-.35816,1.72596,1.23737,2.96334,2.83304,3.87511,4.72174.09772.16287.16274.35829.32572.74904.22788-1.46538.39063-2.70288.58618-3.94027.03257-.29314-.16285-.42332-.32573-.58616-3.41921-3.77753-4.29842-8.10851-2.93076-12.96055.16286-.61875.39074-.5536.81419-.228,2.89819,2.14926,4.33099,5.08004,4.42871,8.66211v.94434c1.62812-1.72594,3.38665-2.93076,5.53593-3.61464.6512-.19533.74892,0,.68376.58616-.29301,3.28906-1.75841,5.92669-4.52643,7.78292-.71635.48847-1.49796.91179-2.24687,1.33522-.29315.16274-.45589.32561-.48845.61863-.19545,1.2048-.39075,2.44231-.61875,3.90769,1.79111-2.21443,3.77751-3.77753,6.38256-4.42872.16285.45588-.06515.84673-.16274,1.20479-.91177,3.19135-2.70288,5.6988-5.73135,7.16418-.52104.22787-.74892.5536-.74892,1.1072-.03258,1.26995-.09772,2.50746-.16287,3.97285,1.69339-1.79113,3.51694-3.15878,5.99182-3.54953-.35817,1.92127-1.23738,3.48436-2.47488,4.85203-.81405.91167-1.75841,1.66071-2.8655,2.18173-.42332.19532-.5536.45588-.52103.8792.06514,1.23738.13016,2.44232.1953,3.80998.5536-.58618.97693-1.10722,1.46539-1.59567.94435-.97693,2.08413-1.66071,3.35408-2.11659.19531-.06514.45589-.29314.6512-.09772.19543.16274.03257.42332,0,.65121-.52103,2.4423-1.72584,4.49386-3.67968,5.99182-1.04206.81417-1.33521,1.5631-.91178,2.76802.32561.91178.45589,1.88869.71635,2.83304.03257.06516.06514.13029.16286.26058.61863-2.57257,2.14916-4.46127,4.33088-6.12196.16285,1.23738.16285,2.34458.03269,3.45178-.29316,2.4096-1.2375,4.55902-2.73546,6.4476-.22788.29314-.22788.55371-.13017.84673.74892,1.98642,1.6607,3.9077,2.89819,5.89412-.35829-2.67019.29303-4.91719,1.53054-7.16405.84662,1.33509,1.40011,2.70276,1.69326,4.13557.52103,2.31201.58617,4.62401-.32573,6.90358-.09772.22788,0,.35816.09785.48845,1.17224,1.56311,2.44229,3.06106,3.94026,4.59147-.42333-1.75841-.68391-3.32164-.61875-4.94975.03257-.74891.16286-1.46538.29315-2.21429.06514-.42332.16274-.58618.5536-.19545,2.63762,2.7029,3.74482,5.95926,3.25637,9.70419-.03257.29303-.06515.55362.19543.74893,1.62812,1.40022,3.48436,2.54,5.40564,3.51693-1.40023-2.44231-2.27957-4.98232-1.98642-7.94564,1.72584,1.17235,3.06105,2.57257,4.07055,4.26598.94435,1.53051,1.5631,3.19121,1.69327,4.98229.03258.52104.26058.81407.71646,1.04208,2.05156,1.0095,4.16814,1.791,6.57786,2.54001-1.33519-1.92125-2.31211-3.77749-2.44229-6.0894,2.21429,1.00949,4.07055,2.24688,5.30803,4.26586.52104.81417.97693,1.69339,1.23738,2.63774.19545.71633.81419.61861,1.30264.7489.52103.13019.45591-.35829.5862-.61862.68376-1.66082,2.21427-2.63774,4.07053-2.60517,1.82355.03257,3.45178,1.10732,4.07053,2.70289.09774.22787.06517.68376.48847.52104.42333-.16288,1.04208.06512,1.26995-.65133,1.0095-3.25638,3.19134-5.43808,6.2524-6.80575.06514-.03258.13016-.03258.29316-.03258-.16287,2.18173-.97692,4.07053-2.27956,5.76381.1953.19543.39072.09772.52103.03258,2.08411-.68379,4.10298-1.46538,6.08941-2.40973.35829-.16275.52104-.35818.55359-.7815.3583-3.84252,2.3447-6.77342,5.30804-9.118.48847-.39063.48847-.03258.48847.32571.09772,2.27957-.39075,4.42873-1.53052,6.44771-.13017.22787-.26059.48845-.48846.8792,2.05155-1.00949,3.7774-2.24699,5.47077-3.54951.29304-.228.16275-.48846.13019-.74904-.5862-3.71226.52103-6.90358,3.09361-9.60634.45589-.48846.5536-.29317.65121.22787.45587,2.14928.48845,4.29856-.13019,6.41513-.03255.1303-.06513.228-.13028.55362,1.53054-1.49797,2.76802-2.99593,3.90768-4.59148.09771-.13015.16287-.22787.09771-.42332-1.13964-3.19122-.71633-6.3174.52105-9.37844.19543-.52104.48846-1.00951.81417-1.62813,1.40025,2.24688,1.791,4.55899,1.5631,7.13146,1.2048-2.01897,2.24688-3.94024,2.96334-6.02437.13017-.39075-.16274-.61865-.35829-.87922-1.43281-1.85599-2.31202-3.94024-2.60505-6.25227-.16275-1.10721-.13016-2.2144.06516-3.4192,2.11656,1.66068,3.61452,3.61453,4.39614,6.3174.35829-1.6608.65119-3.12618.97692-4.59157.09772-.42319-.16275-.58618-.42333-.81405-2.08413-1.53054-3.58207-3.4518-4.23328-5.99183-.09783-.35827-.16285-.68389-.228-1.04205-.03258-.09772,0-.19543.03258-.35829,2.27955.65131,4.0054,1.9864,5.40562,4.03795.19533-1.53052.29317-2.93077.29317-4.33099,0-.39063-.39075-.42319-.65133-.55362-2.54002-1.36753-4.2333-3.38652-5.0149-6.15456-.2279-.7816-.16275-.81417.58617-.61862,1.98642.58617,3.64724,1.62813,5.08006,3.41923-.03269-1.66081.03257-3.06118-.13029-4.49386-.03259-.35829-.32562-.42332-.5536-.55373-3.4518-1.69325-5.37307-4.49386-6.12199-8.2061,0-.06514,0-.16274.03258-.32572,2.54.74904,4.52643,2.21442,6.3174,4.36357,0-1.49796-.26056-2.7679-.48845-4.03798-.06516-.32559-.39075-.35816-.65133-.48845-2.76792-1.43281-5.04746-3.38666-6.05695-6.48028-.29304-.87922-.52105-1.75841-.5536-2.70276-.03258-.48846.09771-.5536.58616-.42332,2.05157.58617,3.77753,1.72583,5.24291,3.25635.13017.13029.19532.3583.45588.39075-.13029-3.77739,1.0095-6.96874,4.03798-9.37847.97692-.78147,1.04208-.74892,1.30251.42333,1.07466,4.72186.32572,9.05286-3.15863,12.63495-.16287.16274-.26058.29303-.22801.52103.19543,1.2048.3583,2.40973.5863,3.74482,1.1072-2.44231,2.57257-4.36356,4.91705-5.73123.32573,1.9864.19545,3.84252-.29303,5.6661-.61863,2.37715-1.75852,4.4287-3.6798,5.99179-.29303.22802-.32561.45589-.32561.78162v3.77739c.06516,0,.16274.03259.2279.03259.26058-.35818.52103-.74893.84673-1.10722,1.07466-1.26995,2.24688-2.37714,3.77742-3.09351.45587-.19542.61874-.13029.52115.35818-.48849,3.35407-1.92127,6.15467-4.88462,8.01079-.19542.13029-.35829.22801-.35829.52117v3.64711c.13017.03255.16274-.22801.29316-.3583,1.17222-1.17225,2.50744-2.11659,4.10298-2.67018.19533-.06516.42332-.19545.5862-.09774.22787.16275.03257.39076-.03258.5536-.74904,3.06106-2.50744,5.37308-5.21032,6.93617-.35817.19532-.48834.42333-.55362.81405-.1953,1.20494-.48846,2.40975-.74891,3.67981,1.72583-1.36767,3.45178-2.57259,5.69866-3.09361-.48846,1.98642-1.49794,3.58219-2.73533,5.04746-1.20493,1.33521-2.57261,2.44229-4.23341,3.1262-.29303.13015-.45589.32559-.55359.58616-.84666,1.85614-1.62813,3.77739-2.86564,5.63352,2.37717-1.1072,4.55913-2.21429,7.19674-2.18172-.71645,1.56311-1.79109,2.73533-3.06105,3.71226-1.98642,1.53052-4.16824,2.70288-6.70826,3.09361-.2279.03258-.39065.13019-.52104.29304-.71634.84676-1.26996,1.79111-2.18172,2.6703,2.27944-.5536,4.39614-.68389,6.51284-.13029.26045.06516.68378.03259.74892.29317.06526.32559-.32561.48845-.5536.65119-2.67019,1.88869-5.63353,2.89819-8.88991,2.73545-1.33519-.06513-1.95383.7815-2.76802,1.43281,2.50744.09772,4.85204.65121,7.06633,2.08414-1.17221.61861-2.312.87918-3.48435,1.1072-2.1166.42332-4.13559.13017-6.12199-.61862-.45588-.16288-.81418-.16288-1.2375.0977-.81405.48846-1.69327.97693-2.67018,1.53054,2.50744.1953,4.62402.97692,6.67558,2.27944-1.2048.58618-2.3446.91179-3.51695,1.0095-2.312.19542-4.59144,0-6.67558-1.17225-.1953-.13017-.39074-.13017-.58617-.03255-.94434.39074-1.88869.78149-2.99592,1.23738,1.13967.29313,2.05157.58616,2.89819,1.00947.87922.42333,1.72585.87921,2.47489,1.66081-2.80061.84664-5.50337.7815-8.17367-.09771-.13017-.03258-.26046-.06526-.35818-.13029-1.27005-.8792-2.57257-.68378-3.90768-.09772-.8792.39075-1.85613.5862-2.83315.74904-.32562.03259-.45591.16275-.55363.52104-.61861,2.18172-2.08411,3.35396-4.13556,3.35396-2.11671,0-3.6798-1.13964-4.29854-3.25635-.09771-.39075-.32559-.48847-.61862-.55362-1.53054-.32571-3.02848-.81418-4.49386-1.40023-.3583-.16273-.61865-.03257-.94435.13019-2.76802,1.36766-5.66611,1.75852-8.69469,1.07463-.26047-.06516-.48847-.13017-.74892-.2279-.06514-.03257-.09771-.09771-.22788-.19532,1.43267-1.27006,3.12606-1.95384,5.07991-2.5727-1.10721-.45588-2.01898-.81407-2.96332-1.23738-.32573-.13017-.52104.09772-.78162.19532-3.15865,1.40025-6.31729,1.43281-9.50876.19545-.06514-.03258-.09772-.09774-.22788-.19545,1.88869-1.40012,3.97282-2.14916,6.44771-2.27944-1.04207-.71646-2.019-1.27006-2.99593-1.75852-.26057-.13019-.48845.06513-.71645.16285-2.99591,1.10722-5.99181,1.07463-8.95516-.13029-.26069-.22823-.52115-.29337-.71658-.61898h0ZM98.1807,43.98742c-.81418,2.05157-2.05156,3.4518-3.81008,4.42873.52103-1.98642,2.01898-3.22393,3.81008-4.42873h0ZM92.64478,48.74186c-1.66083-1.07475-2.83318-2.54012-3.64724-4.55911,1.88872,1.1399,3.19136,2.50743,3.64724,4.55911h0ZM89.12796,36.36749c1.82355.61865,3.61454,2.47489,4.10299,4.2333-1.88872-.97692-3.15867-2.37717-4.10299-4.2333h0ZM98.44116,34.83698c-.6512,2.08411-1.66071,3.90766-3.61454,5.04746.65119-2.08414,1.88869-3.74496,3.61454-5.04746h0ZM91.96088,58.1202c.97691-2.54002,3.02848-3.71223,4.94975-4.98231-1.07464,2.1494-2.70276,3.74494-4.94975,4.98231h0ZM90.43036,57.5666c-1.26995-1.26993-2.34459-4.10298-2.31201-6.0894,1.49807,1.13966,2.80047,4.52644,2.31201,6.0894h0ZM86.68554,68.83389c1.59565-2.27956,4.07055-3.06106,6.54542-3.87511-1.72597,1.9863-3.94026,3.22378-6.54542,3.87511h0ZM85.05729,68.37801c-.71634-2.05157-.52103-5.43821.39075-7.19662.7816,2.47474.81417,4.75432-.39075,7.19662h0ZM92.87266,32.00393c-2.34458-1.13979-3.90768-2.96335-4.85203-5.56839,2.18185,1.49784,4.16827,2.96322,4.85203,5.56839h0ZM94.53346,31.18973c-.68376-2.18171.87922-6.18712,3.15877-8.14097.48847,2.21431-1.20491,6.87104-3.15877,8.14097h0ZM86.35993,16.47079c3.2239,1.26995,5.04748,3.54949,5.66608,6.871-2.99589-1.36764-4.88448-3.58208-5.66608-6.871h0ZM93.03552,21.16008c-1.4327-3.35409-.09774-8.75985,2.63773-10.58328,1.2048,2.89819-.32573,8.88989-2.63773,10.58328h0ZM82.41966,80.13362c-1.92126.5536-4.88458.39076-6.38256-.35829,2.18186-1.00937,4.20083-.32559,6.38256.35829h0ZM88.08589,73.9138c-2.31214,1.20493-4.55913,1.69339-6.96873,1.82368.97692-1.43281,3.61454-2.11671,6.96873-1.82368h0ZM77.76307,76.06307c-.42333-2.01898.22788-4.75431,1.6281-6.74071.68392,1.66067-.35827,5.89408-1.6281,6.74071h0ZM67.30997,87.91642c-1.95385.19543-3.81008-.19532-5.66623-.84664,1.27008-.81417,4.49387-.3257,5.66623.84664h0ZM75.38579,84.46464c-1.56309.42332-4.2007.16284-5.86153-.52104.7816-.87921,3.80998-.58618,5.86153.52104h0ZM57.05216,86.8092c.61875-2.01897,1.85613-3.58207,3.67981-4.68915-.74904,1.92127-1.53052,3.84252-3.67981,4.68915h0ZM68.57991,82.31535c.16287-2.6376,1.36767-4.75431,3.19134-6.54541-.35829,2.54014-1.33519,4.75444-3.19134,6.54541h0ZM38.4581,86.97207c-1.9864.84675-3.87511,1.10722-5.86152.84675,1.85625-.71645,3.58207-1.85624,5.86152-.84675h0ZM39.04427,81.95718c1.79111,1.27008,2.99592,2.80059,3.77753,4.75444-1.3678-.19543-3.4518-2.8006-3.77753-4.75444h0ZM50.01115,91.81214c-1.7911,0-3.12622-1.33522-3.12622-3.1262,0-1.72584,1.36767-3.06105,3.09364-3.06105,1.79098,0,3.2238,1.33521,3.2238,3.02849.03257,1.82354-1.36768,3.19132-3.19122,3.15876h0ZM24.52074,84.43205c1.88869-.71634,3.74482-1.53051,5.82896-.61863-1.88869.81407-3.84254.97682-5.82896.61863h0ZM17.58458,80.13362c1.98641-.71645,4.0054-1.33519,6.28485-.29313-2.21442.68389-4.2334.81418-6.28485.29313h0ZM18.5615,75.57463c-2.31213.03257-4.52643-.45589-6.51284-1.6607,2.34458-.06516,4.6566-.03269,6.51284,1.6607h0ZM6.57788,64.95866c2.4423.84675,4.94975,1.59567,6.70815,3.97283-2.7679-.71637-4.98232-1.95385-6.70815-3.97283h0ZM14.75142,68.41057c-1.2048-2.31214-1.10721-4.72174-.35818-7.13148.94435,2.31191,1.10721,4.68905.35818,7.13148h0ZM31.29394,82.51079c-1.85603-2.01898-2.83306-4.29843-3.41913-6.90359,1.75843,1.20492,3.61468,4.88461,3.41913,6.90359h0ZM22.11091,76.09567c-1.30265-.87922-2.18173-4.16828-1.79111-6.70829,1.33521,1.40036,2.24711,4.85216,1.79111,6.70829h0ZM1.69327,44.08513c1.95385,1.10723,3.54952,3.06106,3.74482,4.52644-1.49794-.71646-3.38653-2.99589-3.74482-4.52644h0ZM7.13148,48.9046c.09773-1.62812,1.69327-3.67967,3.58209-4.62402-.78161,1.92116-1.95396,3.35409-3.58209,4.62402h0ZM10.64842,36.2372c-.71646,1.95385-2.37716,3.64724-4.16826,4.29856.81407-1.98655,2.21443-3.32162,4.16826-4.29856h0ZM4.91706,40.04718c-1.85601-1.30254-2.89807-3.0935-3.61453-5.2102,1.59555.8792,3.6471,3.80995,3.61453,5.2102h0ZM7.81526,58.1202c-2.14916-1.1072-3.74482-2.76789-4.94975-4.8519,1.69338.39063,4.59158,3.22378,4.94975,4.8519h0ZM11.75551,51.28188c-.26045,2.37705-.78149,4.49386-2.27944,6.25227-.61874-1.26993.39076-4.10311,2.27944-6.25227h0ZM11.72294,26.56572c-.94435,2.50744-2.4423,4.39615-4.75432,5.60094.06514-1.6281,2.14928-4.23327,4.75432-5.60094h0ZM1.92116,22.91847c1.69338,1.23738,4.00539,4.81947,3.45179,8.49926-2.37704-2.40971-3.41922-5.17774-3.45179-8.49926h0ZM7.78268,23.37437c.5536-3.35394,2.73545-6.02438,5.63364-6.90346-.61874,3.32138-2.60516,5.47066-5.63364,6.90346h0ZM6.87091,21.25766c-1.23738-1.17222-1.95385-2.47486-2.44231-3.94024-.6512-2.05157-.91166-4.16814-.48845-6.28484.03257-.16285-.03258-.39075.19543-.45588.19531-.03257.29303.16273.42332.29303,1.49795,1.53051,2.40973,3.38665,2.63762,5.50336.19543,1.56321.06514,3.15876-.3256,4.88458h0Z" style="fill: #d4b17e; fill-rule: evenodd;"/>
      <path id="shield" d="M80.04215.75c1.02068,0,1.8481.82742,1.8481,1.8481v44.30129c.05652,15.42919-11.28762,25.77171-27.69115,33.85703-2.6497,1.30604-5.74932,1.30603-8.39901-.00002-16.40341-8.08538-27.74736-18.42789-27.69076-33.857V2.5981c0-1.02068.82742-1.8481,1.8481-1.8481h60.08472Z" style="fill: #dbba85; stroke: #dbba85; stroke-miterlimit: 2.61313; stroke-width: 1.5px;"/>
    </g>
  </g>
</svg>