<?xml version="1.0" encoding="UTF-8"?>
<svg id="Layer_2" data-name="Layer 2" xmlns="http://www.w3.org/2000/svg" width="25.83578" height="10.80574" viewBox="0 0 25.83578 10.80574">
  <g id="fcc-biz-fin-logo">
    <g id="elements">
      <path id="sierra-nevada" d="M20.23547,6.55851c.25153.25423.23553.24317.57602-.13087.0939-.10333.45101-.50114.53421-.54669.07769.16406.4995,1.67904.55694,1.92797-.09994-.08134-.74654-.91168-.83716-.98135-.12489.08097-.23481.24361-.33381.35802-.16629-.10863-.37861-.46161-.49621-.62709h0ZM12.68059,8.7665c.29589-.55424.26259-.66628.60332-.87803.47268-.29377.64122-.34907.99148-.80514l2.23502-2.51305c.24551-.24833.85977-1.03702,1.01656-1.12645-.04378.26833-.42371.88672-.47092,1.0882.11946-.06002.36722-.40147.54447-.49408.11874.16688.1889.35602.07604.55694l-.52506.94474c-.09038.16076-.18678.30612-.26058.45949.18056-.15408.39065-.3804.54705-.54822l.5447-.55812,1.17132,1.63009c.06191.08263.16324.22962.22397.32729.10582.17031.37638.53083.43677.67876l-1.14508-1.2318c-.09309-.1204-.12674-.15076-.21114-.24634-.13618-.15441-.29411-.39147-.42793-.51305l.10604.92276c-.10053.05424-.34757.27869-.4476.36508-.22315.19292-.2108.22115-.35992.47832-.21197.36569-.39616.72725-.60519,1.09974-.12181.21717-.14522.35238-.37828.45114l-1.08161.50327c-.13547.06685-.37638.20113-.51939.2461l1.23981-1.52334c.09369-.11429.31295-.35284.38227-.48408-.4016.25175-2.59036,1.76872-2.9012,1.90973l.97781-1.40892c.08896-.12666.08568-.04392.13477-.21044l-1.80147,1.41681c-.1318.10839-.46665.40569-.60025.46195l.50421-.99934h0ZM3.35885,7.24421c.15018.06875.1914.21588.40652.18221.20822-.0325.27611-.08003.38406-.22938.17923-.24835.36743-.47525.55822-.70878.19679-.2408.37179-.45712.57094-.69345l.56846-.69689c.35827-.51268.75915-.92533,1.13342-1.39611l.41533-.53669c.19398-.23773.51988-.67392.69347-.83586l-.33097,2.5993.64299-.04154c-.03969.22115-.15537.49736-.15902.71722.20127.1675.37239.48716.53987.69654.18619.23291.44937.45759.1317.80056l-1.19132,1.20204.38204-1.60361-1.1533.65344c-.1723.10052-1.02677.63013-1.11481.64708.09251-.33142.45631-1.46449.47879-1.76226-.25858.25224-1.57489,2.0785-1.75897,2.22706l-.33343-.78128c-.15302.06063-1.74061,1.31855-2.11523,1.59585-.16961.12557-.55213.45206-.7083.51809.11488-.21832.33908-.45135.49361-.66016.21091-.28505,1.33985-1.79804,1.46589-1.89338h0ZM10.59255,4.52779c.05508-.12851,1.28961-1.56416,1.48155-1.79133l1.13425-1.33231c.13852-.165.22375-.29929.35863-.42628.08767.44664.02718.82421-.01566,1.25252.10193-.04284.29777-.27578.37898-.36476.20114-.22044.2354-.0852.34733.14302.13123.26728.40557.73005.48913.99769-.0359-.03976-.20832-.22056-.24891-.2455-.09333.05636-.72077.91049-.86942,1.09267-.21044.25787-.13605.2953-.49855.46396-.17666.08226-.43431.21892-.6199.27271.17454-.39899.78973-1.55547.86907-1.79346-.121.07686-.24186.21009-.36392.31566-.12347.1071-.23786.21704-.35555.32178-.17937.15959-.54307.53081-.74478.63615.09027-.32177.30294-.67215.36873-.95664-.10874.06545-.60742.75927-.74712.9278-.5779.69735-.2401.54518-.96382.48631h0ZM16.68342,3.41947L14.00102.04643c-.23599-.19313-.50362.26341-.7051.50526l-2.77422,3.27782c-.23066.26846-.25445.09052-.66543-.42216-.42325-.52798-1.04338-1.39987-1.45955-1.88561-.26635-.31082-.54646.2194-.73183.44148-.11006.13183-.20304.24469-.3133.37615-.21305.25376-.38664.43808-.60602.74549l-1.20002,1.4732c-.41158.48079-.80893.99335-1.21476,1.48707-.20113.2447-.47359.6591-.65509.61792-.14876-.03367-.19725-.26221-.36732-.26024-.13994.00167-.27105.23012-.34602.32578l-2.40487,2.97288c-.13325.1623-1.04679,1.10776-.2054,1.10376l5.37613-.00094c6.35167-.00896,12.70536-.0133,19.05691-.00048.19539.00035.39065-.00152.58601.00011.18998.00141.39041.0286.45101-.18606.06333-.22457-.1105-.39252-.18278-.48516-.48585-.62367-1.04536-1.29029-1.50049-1.89736-.76102-1.01513-1.55311-1.96564-2.35604-3.03456-.25105-.33401-.34167-.32448-.70688.14524-.45843.58966-.46102.54493-.67027.27306l-1.18603-1.52287c-.23208-.24408-.9232-1.17-1.17708-1.50178-.36921-.48256-.35931-.26377-1.02559.46254-.11769.12841-.19431.2628-.33356.36251h0Z" style="fill: #fff; fill-rule: evenodd;"/>
    </g>
  </g>
</svg>